<?xml version="1.0" encoding="UTF-8"?>
<svg id="Layer_1" xmlns="http://www.w3.org/2000/svg" viewBox="0 0 1920 1080">
  <defs>
    <style>
      .cls-1 {
        fill: #25282a;
      }
    </style>
  </defs>
  <path class="cls-1" d="M925.72,571.89c4.7,0,8.48-2.5,9.56-7.1h-3.86c-.85,2.84-2.7,4.41-5.71,4.41-3.93,0-6.21-3.02-6.21-7.73s2.28-7.73,6.21-7.73c3.12,0,4.9,2.05,5.47,4.52h3.86c-.89-4.22-4.24-7.21-9.33-7.21-6.13,0-10.06,4.22-10.06,10.42s3.93,10.42,10.06,10.42M948.31,571.89c6.13,0,10.02-4.22,10.02-10.42s-3.89-10.42-10.02-10.42-10.06,4.22-10.06,10.42,3.93,10.42,10.06,10.42M942.1,561.47c0-4.71,2.28-7.73,6.21-7.73s6.17,3.03,6.17,7.73-2.24,7.73-6.17,7.73-6.21-3.02-6.21-7.73M963.04,571.48h3.78v-11.84c0-4.11,1.62-5.9,4.63-5.9s4.63,1.79,4.63,5.83v11.92h3.78v-11.84c0-4.11,1.62-5.9,4.63-5.9s4.63,1.79,4.63,5.83v11.92h3.78v-12.48c0-4.63-2.35-7.96-6.86-7.96-3.7,0-5.71,2.58-6.55,5.01-.73-2.58-2.93-5.01-6.48-5.01s-5.24,2.09-6.17,4.48v-4.07h-3.78v20.02ZM998.67,578.8h3.78v-11.69c1.27,2.88,4.2,4.78,7.29,4.78,5.01,0,8.79-4.26,8.79-10.42s-3.82-10.42-8.79-10.42c-3.86,0-6.32,2.58-7.29,5.27v-4.86h-3.78v27.35ZM1002.29,561.47c0-4.71,2.28-7.73,6.21-7.73s6.17,3.03,6.17,7.73-2.24,7.73-6.17,7.73-6.21-3.02-6.21-7.73M1023.26,571.48h3.78v-12.07c0-3.59,1.85-4.75,5.63-4.75h1.16v-3.62c-3.82,0-5.86,1.9-6.79,4.71v-4.3h-3.78v20.02ZM1045.93,571.89c6.13,0,10.02-4.22,10.02-10.42s-3.89-10.42-10.02-10.42-10.06,4.22-10.06,10.42,3.93,10.42,10.06,10.42M1039.73,561.47c0-4.71,2.27-7.73,6.21-7.73s6.17,3.03,6.17,7.73-2.24,7.73-6.17,7.73-6.21-3.02-6.21-7.73M1060.66,571.48h3.78v-11.84c0-4.11,1.62-5.9,4.63-5.9s4.63,1.79,4.63,5.83v11.92h3.78v-11.84c0-4.11,1.62-5.9,4.63-5.9s4.63,1.79,4.63,5.83v11.92h3.78v-12.48c0-4.63-2.35-7.96-6.86-7.96-3.7,0-5.71,2.58-6.55,5.01-.73-2.58-2.93-5.01-6.48-5.01s-5.24,2.09-6.17,4.48v-4.07h-3.78v20.02ZM1096.29,571.48h3.78v-20.03h-3.78v20.03ZM1096.13,548.02h4.09v-4.93h-4.09v4.93ZM1113.25,571.89c5.09,0,8.64-2.32,8.64-6.17,0-3.1-1.77-4.97-6.09-5.87l-2.89-.6c-2.78-.56-4.12-1.12-4.12-2.73,0-1.79,2.16-2.8,4.39-2.8,2.01,0,3.93.97,4.51,2.73h3.86c-.92-3.62-4.36-5.42-8.37-5.42-4.51,0-8.14,2.32-8.14,5.87,0,3.06,2.47,4.63,6.05,5.38l2.89.6c3.08.64,4.16,1.49,4.16,3.29s-1.66,3.02-4.9,3.02c-2.08,0-4.32-.75-4.9-3.59h-3.86c.58,4.11,4.16,6.28,8.75,6.28M1135.08,571.89c4.67,0,8.02-2.02,9.21-6.28h-3.86c-.77,2.24-2.35,3.59-5.36,3.59-3.43,0-5.71-2.32-6.01-6.65h15.62c.04-.49.08-1.01.08-1.38,0-6.16-3.93-10.12-9.72-10.12-6.13,0-9.79,4.33-9.79,10.42s3.59,10.42,9.83,10.42M1129.1,559.79c.46-4,2.66-6.05,5.94-6.05s5.63,2.47,5.86,6.05h-11.8ZM1149.38,571.48h4.55v-4.48h-4.55v4.48ZM1148.22,548.02h.92v-4.19h1.67v-.74h-4.26v.74h1.67v4.19ZM1151.15,548.02h.92v-4.74l1.05,4.74h1.67l1.06-4.81v4.81h.92v-4.93h-1.78l-1.03,4.74-1.05-4.74h-1.75v4.93Z"/>
  <path class="cls-1" d="M514.9,571.27h3.89v-10.61h6.9c6.94,0,11.14-3.18,11.14-8.89s-4.2-8.89-11.14-8.89h-10.8v28.4ZM518.8,557.3v-11.06h7.02c4.51,0,6.98,1.79,6.98,5.53s-2.47,5.53-6.98,5.53h-7.02ZM549.03,571.69c4.67,0,8.02-2.02,9.21-6.28h-3.85c-.77,2.24-2.35,3.59-5.36,3.59-3.43,0-5.71-2.32-6.01-6.65h15.62c.04-.49.08-1.01.08-1.38,0-6.17-3.93-10.12-9.72-10.12-6.13,0-9.79,4.33-9.79,10.42s3.59,10.42,9.83,10.42M543.05,559.58c.46-4,2.66-6.05,5.94-6.05s5.63,2.47,5.86,6.05h-11.8ZM563.41,571.27h3.78v-12.07c0-3.59,1.85-4.74,5.63-4.74h1.16v-3.62c-3.82,0-5.86,1.9-6.79,4.71v-4.3h-3.78v20.03ZM579.68,548.45v2.8h-4.28v2.76h4.28v17.26h3.78v-17.26h5.32v-2.76h-5.32v-2.8c0-2.2,1.12-2.8,3.01-2.8h2.31v-2.76h-2.7c-3.62,0-6.4,1.72-6.4,5.57M600.38,571.69c6.13,0,10.03-4.22,10.03-10.42s-3.9-10.42-10.03-10.42-10.06,4.22-10.06,10.42,3.93,10.42,10.06,10.42M594.18,561.26c0-4.71,2.27-7.73,6.21-7.73s6.17,3.03,6.17,7.73-2.24,7.73-6.17,7.73-6.21-3.03-6.21-7.73M615.11,571.27h3.78v-12.07c0-3.59,1.85-4.74,5.63-4.74h1.16v-3.62c-3.82,0-5.86,1.9-6.79,4.71v-4.3h-3.78v20.03ZM629.49,571.27h3.78v-11.84c0-4.11,1.62-5.9,4.63-5.9s4.63,1.79,4.63,5.83v11.92h3.78v-11.84c0-4.11,1.62-5.9,4.63-5.9s4.63,1.79,4.63,5.83v11.92h3.78v-12.48c0-4.63-2.35-7.96-6.86-7.96-3.7,0-5.71,2.58-6.56,5.01-.73-2.58-2.93-5.01-6.48-5.01s-5.24,2.09-6.17,4.48v-4.07h-3.78v20.03ZM670.9,571.69c4.01,0,5.71-1.72,7.13-4.52v4.11h3.78v-12.89c0-3.74-2.28-7.55-8.56-7.55-4.86,0-8.17,2.54-8.64,6.32h3.85c.27-1.91,1.89-3.62,4.78-3.62,3.28,0,4.78,2.2,4.78,4.82v.41l-5.55.56c-3.7.37-8.52,1.27-8.52,5.94,0,3.7,3.09,6.43,6.94,6.43M667.82,565.26c0-2.91,3.24-3.29,6.09-3.59l4.13-.41v1.49c0,3.59-1.93,6.5-5.74,6.5-2.39,0-4.47-1.42-4.47-4M687.6,571.27h3.78v-11.84c0-4.11,1.93-5.9,4.94-5.9s4.93,1.76,4.93,5.83v11.92h3.78v-12.48c0-4.48-2.51-7.96-7.17-7.96-3.55,0-5.55,2.13-6.48,4.48v-4.07h-3.78v20.03ZM719.56,571.69c4.7,0,8.48-2.5,9.56-7.1h-3.85c-.85,2.84-2.7,4.41-5.71,4.41-3.93,0-6.21-3.03-6.21-7.73s2.28-7.73,6.21-7.73c3.12,0,4.9,2.06,5.47,4.52h3.86c-.89-4.22-4.24-7.21-9.33-7.21-6.13,0-10.06,4.22-10.06,10.42s3.93,10.42,10.06,10.42M741.96,571.69c4.66,0,8.02-2.02,9.21-6.28h-3.85c-.77,2.24-2.35,3.59-5.36,3.59-3.43,0-5.71-2.32-6.01-6.65h15.61c.04-.49.08-1.01.08-1.38,0-6.17-3.93-10.12-9.72-10.12-6.13,0-9.79,4.33-9.79,10.42s3.59,10.42,9.83,10.42M735.98,559.58c.46-4,2.66-6.05,5.94-6.05s5.63,2.47,5.86,6.05h-11.8Z"/>
  <path class="cls-1" d="M767.83,571.48h7.21l4.01-19.84,4.01,19.84h7.21l5.09-20.03h-3.66l-5.05,19.84-4.01-19.84h-7.17l-4.01,19.84-5.05-19.84h-3.66l5.09,20.03ZM799.22,571.48h3.78v-20.03h-3.78v20.03ZM817.26,571.48h2.7v-2.77h-2.31c-1.89,0-3.01-.6-3.01-2.73v-11.77h5.24v-2.77h-5.24v-4.74h-3.78v4.74h-4.36v2.77h4.36v11.77c0,3.81,2.81,5.49,6.4,5.49M823.97,571.48h3.78v-11.84c0-4.11,1.93-5.9,4.94-5.9s4.94,1.76,4.94,5.83v11.92h3.78v-12.48c0-4.48-2.51-7.96-7.17-7.96-3.55,0-5.55,2.13-6.48,4.48v-12.44h-3.78v28.39ZM855.93,569.2c-3.93,0-6.21-3.03-6.21-7.73s2.27-7.73,6.21-7.73,6.17,3.02,6.17,7.73-2.24,7.73-6.17,7.73M855.93,551.04c-6.13,0-10.06,4.22-10.06,10.42s3.93,10.42,10.06,10.42,10.02-4.22,10.02-10.42-3.89-10.42-10.02-10.42M877.52,571.89c3.43,0,5.47-2.13,6.36-4.41v4h3.78v-20.03h-3.78v11.84c0,4.07-1.81,5.9-4.82,5.9s-4.86-1.79-4.86-5.83v-11.92h-3.78v12.48c0,4.48,2.43,7.96,7.09,7.96M901.93,571.48h2.7v-2.77h-2.31c-1.89,0-3.01-.6-3.01-2.73v-11.77h5.24v-2.77h-5.24v-4.74h-3.78v4.74h-4.36v2.77h4.36v11.77c0,3.81,2.81,5.49,6.4,5.49M799.06,548.02h4.09v-4.93h-4.09v4.93Z"/>
</svg>