<?xml version="1.0" encoding="UTF-8"?>
<svg id="Layer_1" xmlns="http://www.w3.org/2000/svg" viewBox="0 0 1190.55 841.89">
  <defs>
    <style>
      .cls-1 {
        fill: #25282a;
      }
    </style>
  </defs>
  <path class="cls-1" d="M1051.67,456.13h40.25v-5.38c0-37.71-6.27-95.76-56.59-95.76s-55.38,58.35-55.38,95.76,4.65,92.76,56.59,92.76c39.09,0,54.16-30.53,54.16-64.14h-32.09c0,14.17-3.13,33.91-21.77,33.91-22.38,0-21.66-41.89-21.66-57.15v-24.44c0-14.06-1.53-46.18,20.14-46.18s20.96,32.11,20.96,46.18h-29.07l24.44,24.44ZM470.27,354.98c-51.13,0-55.38,58.35-55.38,95.76s4.65,92.76,56.59,92.76c39.09,0,54.16-30.53,54.16-64.14h-32.09c0,14.17-3.13,33.91-21.77,33.91-22.38,0-21.66-41.89-21.66-57.15v-24.44c0-14.06-1.53-46.18,20.14-46.18s20.96,32.11,20.96,46.18h-29.07l24.44,24.44h40.25v-5.38c0-37.71-6.27-95.76-56.59-95.76ZM98.63,540.01h34.42v-244.87h-34.42v244.87ZM294.75,358.08v30.53h59.34l-63.89,151.41h108.75v-30.13h-58.43l61.96-151.8h-107.73ZM584.53,380.62h-.7v-22.54h-34.12v181.93h34.43v-114.41c0-22.93,8.2-37,33.71-37l5.77.4v-33.61c-18.93,0-30.98,9.17-39.08,25.23ZM674.34,404.95c0-12.17,10.53-19.44,23.68-19.44,8.1,0,18.94,4.19,25.53,9.97v-32.12c-10.03-5.69-19.34-7.98-31.39-7.98-28.96,0-49.11,21.04-49.11,49.56,0,50.37,57.61,52.67,57.61,84.69,0,14.15-8.11,22.94-22.77,22.94-12.05,0-19.76-4.59-28.66-11.47v33.21c10.02,6.08,17.82,8.77,29.76,8.77,32.91,0,53.07-22.14,53.07-54.15,0-51.86-56.91-53.46-57.71-83.99ZM899.01,356.18v27.43h-17.52v26.73h17.52v131.16h34.02v-131.16h28.66v-26.73h-28.66v-23.64c0-12.17-1.52-29.03,16.3-29.03,5.37,0,9.21,2,14.27,4.19v-35.01c-7.68-3.49-14.27-5.38-23.18-5.38-39.18,0-41.41,30.52-41.41,61.44ZM232.99,378.33h-.81c-6.18-13.36-16.61-22.94-32.9-22.94-43.34,0-44.55,61.04-44.55,91.56s.81,96.15,43.74,96.15c19.74,0,26.73-10.67,33.72-26.32h.81v23.24h34.43v-181.93h-34.43v20.25ZM212.43,512.58c-25.52,0-22.48-48.48-22.48-63.74,0-14.46-3.04-63.33,22.48-63.33,23.19,0,21.67,49.27,21.67,63.33s1.52,63.74-21.67,63.74ZM826.52,378.33h-.71c-6.17-13.36-17.11-22.94-32.91-22.94-43.73,0-44.54,61.04-44.54,91.56s.4,96.15,43.33,96.15c19.75,0,27.14-10.67,34.12-26.32h.71v23.24h34.12v-181.93h-34.12v20.25ZM806.07,512.58c-25.62,0-22.89-48.48-22.89-63.74,0-14.46-2.73-63.33,22.89-63.33,22.77,0,21.25,49.27,21.25,63.33s1.52,63.74-21.25,63.74Z"/>
  <g>
    <path class="cls-1" d="M110.97,570.33h3.09l12.34,30.47h-2.97c-1.45-3.55-2.93-7.11-4.37-10.66h-13.2c-1.44,3.55-2.85,7.11-4.26,10.66h-2.97l12.34-30.47ZM118.04,587.56c-2.03-5-4.02-10.16-5.51-14.02h-.08c-1.05,2.7-3.4,8.48-5.59,14.02h11.17Z"/>
    <path class="cls-1" d="M140.1,570.33h2.81v13.83h17.77v-13.83h2.77v30.47h-2.77v-14.06h-17.77v14.06h-2.81v-30.47Z"/>
    <path class="cls-1" d="M169.09,595.84c0-4.06,3.67-5.74,7.77-6.6,3.98-.82,6.84-.9,6.84-3.67,0-2.42-2.15-4.69-5.47-4.69-2.89,0-5,1.76-5.86,4.53l-2.54-.9c1.29-4.14,5-5.9,8.59-5.9,3.91,0,8.01,2.07,8.01,7.19v8.24c0,3.6.27,5.08.7,6.76h-2.66c-.39-1.52-.51-2.81-.51-4.49h-.08c-1.37,2.93-4.02,5.15-7.97,5.15-3.67,0-6.84-1.83-6.84-5.62ZM176.4,599.31c4.53,0,7.34-4.26,7.34-7.15v-2.93c-1.21.94-2.23,1.29-5.12,1.84-2.5.47-6.68,1.37-6.68,4.65,0,2.19,1.72,3.6,4.45,3.6Z"/>
    <path class="cls-1" d="M193.13,569.55h2.62v31.25h-2.62v-31.25Z"/>
    <path class="cls-1" d="M202.7,579.24h2.54v4.14h.08c1.68-3.36,4.53-4.77,7.5-4.77s6.05,1.29,7.11,5.31h.08c2.07-3.98,4.88-5.31,7.77-5.31,3.67,0,7.7,2.19,7.7,8.67v13.52h-2.62v-12.34c0-5.43-2.74-7.42-5.7-7.42-4.22,0-6.76,3.91-6.76,7.74v12.03h-2.62v-12.34c0-5.43-2.73-7.42-5.7-7.42-4.22,0-6.76,3.91-6.76,7.74v12.03h-2.62v-21.56Z"/>
    <path class="cls-1" d="M240.5,595.84c0-4.06,3.67-5.74,7.77-6.6,3.98-.82,6.84-.9,6.84-3.67,0-2.42-2.15-4.69-5.47-4.69-2.89,0-5,1.76-5.86,4.53l-2.54-.9c1.29-4.14,5-5.9,8.59-5.9,3.9,0,8.01,2.07,8.01,7.19v8.24c0,3.6.27,5.08.7,6.76h-2.66c-.39-1.52-.51-2.81-.51-4.49h-.08c-1.37,2.93-4.02,5.15-7.97,5.15-3.67,0-6.84-1.83-6.84-5.62ZM247.8,599.31c4.53,0,7.34-4.26,7.34-7.15v-2.93c-1.21.94-2.23,1.29-5.12,1.84-2.5.47-6.68,1.37-6.68,4.65,0,2.19,1.72,3.6,4.45,3.6Z"/>
    <path class="cls-1" d="M273.4,585.68c0-9.65,6.8-15.98,15.19-15.98,5.66,0,11.45,2.89,13.44,8.91l-2.54,1.02c-1.84-4.65-6.09-7.3-10.86-7.3-6.6,0-12.26,5-12.26,13.4,0,8.91,6.37,13.12,12.69,13.12s10.23-4.22,11.64-9.22l2.5.9c-1.91,6.25-6.72,10.94-14.41,10.94-9.02,0-15.39-6.48-15.39-15.78Z"/>
    <path class="cls-1" d="M305.96,590.06c0-6.72,4.45-11.45,10.82-11.45s10.74,4.72,10.74,11.45-4.41,11.4-10.74,11.4-10.82-4.69-10.82-11.4ZM316.78,599.04c4.73,0,7.97-3.71,7.97-8.98s-3.24-9.02-7.97-9.02-8.01,3.75-8.01,9.02,3.28,8.98,8.01,8.98Z"/>
    <path class="cls-1" d="M332.85,579.24h2.54v4.14h.08c1.68-3.36,4.53-4.77,7.5-4.77s6.05,1.29,7.11,5.31h.08c2.07-3.98,4.88-5.31,7.77-5.31,3.67,0,7.7,2.19,7.7,8.67v13.52h-2.62v-12.34c0-5.43-2.74-7.42-5.7-7.42-4.22,0-6.76,3.91-6.76,7.74v12.03h-2.62v-12.34c0-5.43-2.73-7.42-5.7-7.42-4.22,0-6.76,3.91-6.76,7.74v12.03h-2.62v-21.56Z"/>
    <path class="cls-1" d="M372.28,579.24h2.54v4.53h.08c1.87-3.48,4.96-5.16,8.32-5.16,5.7,0,9.92,4.77,9.92,11.41s-4.41,11.44-10,11.44c-3.63,0-6.64-1.91-8.24-5.04v12.97h-2.62v-30.16ZM382.71,599.04c4.41,0,7.62-3.83,7.62-9.02s-3.24-8.99-7.62-8.99-7.81,3.67-7.81,9.02,3.55,8.98,7.81,8.98Z"/>
    <path class="cls-1" d="M396.78,595.84c0-4.06,3.67-5.74,7.77-6.6,3.98-.82,6.84-.9,6.84-3.67,0-2.42-2.15-4.69-5.47-4.69-2.89,0-5,1.76-5.86,4.53l-2.54-.9c1.29-4.14,5-5.9,8.59-5.9,3.91,0,8.01,2.07,8.01,7.19v8.24c0,3.6.27,5.08.7,6.76h-2.66c-.39-1.52-.51-2.81-.51-4.49h-.08c-1.37,2.93-4.02,5.15-7.97,5.15-3.67,0-6.83-1.83-6.83-5.62ZM404.09,599.31c4.53,0,7.34-4.26,7.34-7.15v-2.93c-1.21.94-2.23,1.29-5.12,1.84-2.5.47-6.68,1.37-6.68,4.65,0,2.19,1.72,3.6,4.45,3.6Z"/>
    <path class="cls-1" d="M420.82,579.24h2.54v4.14h.08c1.72-3.36,4.53-4.77,7.62-4.77,3.83,0,7.85,2.15,7.85,8.67v13.52h-2.62v-12.34c0-5.39-2.77-7.42-5.94-7.42-4.42,0-6.92,3.91-6.92,7.74v12.03h-2.62v-21.56Z"/>
    <path class="cls-1" d="M451.07,601.11l-8.71-21.87h2.85c2.46,6.05,4.73,12.15,7.19,18.44h.08c2.38-6.29,4.69-12.42,7.07-18.44h2.85l-12.07,30.16h-2.5l3.24-8.28Z"/>
  </g>
</svg>