<?xml version="1.0" encoding="UTF-8"?>
<svg id="Layer_1" xmlns="http://www.w3.org/2000/svg" viewBox="0 0 1190.55 841.89">
  <defs>
    <style>
      .cls-1 {
        fill-rule: evenodd;
      }

      .cls-1, .cls-2 {
        fill: #fff;
      }
    </style>
  </defs>
  <polygon class="cls-1" points="876.29 213.2 876.29 276.25 380.78 517.98 339.98 517.98 876.29 213.2"/>
  <polygon class="cls-1" points="876.29 357.9 876.29 419.85 488.85 517.98 447.64 517.98 876.29 357.9"/>
  <polygon class="cls-1" points="301.16 134.37 301.16 517.98 824.58 134.37 301.16 134.37"/>
  <path class="cls-2" d="M850.74,657.22h23.17v-3.1c0-21.71-3.61-55.13-32.58-55.13s-31.88,33.59-31.88,55.13,2.68,53.4,32.58,53.4c22.5,0,31.18-17.57,31.18-36.92h-18.47c0,8.16-1.8,19.52-12.53,19.52-12.88,0-12.47-24.12-12.47-32.9v-14.07c0-8.09-.88-26.58,11.6-26.58s12.07,18.49,12.07,26.58h-16.73l14.07,14.07ZM516.04,598.99c-29.43,0-31.88,33.59-31.88,55.13s2.68,53.4,32.58,53.4c22.5,0,31.18-17.57,31.18-36.92h-18.47c0,8.16-1.8,19.52-12.53,19.52-12.88,0-12.47-24.12-12.47-32.9v-14.07c0-8.09-.88-26.58,11.6-26.58s12.07,18.49,12.07,26.58h-16.73l14.07,14.07h23.17v-3.1c0-21.71-3.61-55.13-32.58-55.13ZM302.1,705.51h19.82v-140.96h-19.82v140.96ZM415,600.77v17.57h34.16l-36.78,87.16h62.6v-17.34h-33.63l35.67-87.39h-62.02ZM581.82,613.75h-.4v-12.98h-19.64v104.74h19.82v-65.86c0-13.2,4.72-21.3,19.41-21.3l3.32.23v-19.35c-10.9,0-17.83,5.28-22.5,14.52ZM633.52,627.76c0-7.01,6.06-11.19,13.63-11.19,4.67,0,10.9,2.41,14.7,5.74v-18.49c-5.78-3.27-11.13-4.59-18.07-4.59-16.67,0-28.27,12.11-28.27,28.53,0,29,33.16,30.32,33.16,48.75,0,8.15-4.67,13.2-13.11,13.2-6.94,0-11.38-2.64-16.5-6.6v19.12c5.77,3.5,10.26,5.05,17.13,5.05,18.94,0,30.55-12.75,30.55-31.17,0-29.86-32.76-30.78-33.22-48.35ZM762.86,599.69v15.79h-10.08v15.39h10.08v75.5h19.58v-75.5h16.5v-15.39h-16.5v-13.61c0-7.01-.87-16.71,9.39-16.71,3.09,0,5.3,1.15,8.21,2.41v-20.16c-4.42-2.01-8.21-3.1-13.34-3.1-22.56,0-23.84,17.57-23.84,35.37ZM379.44,612.43h-.47c-3.56-7.69-9.56-13.2-18.94-13.2-24.95,0-25.65,35.14-25.65,52.71s.47,55.35,25.18,55.35c11.37,0,15.39-6.14,19.41-15.15h.47v13.38h19.82v-104.74h-19.82v11.66ZM367.61,689.72c-14.69,0-12.94-27.91-12.94-36.69,0-8.32-1.75-36.46,12.94-36.46,13.35,0,12.47,28.36,12.47,36.46s.87,36.69-12.47,36.69ZM721.12,612.43h-.41c-3.55-7.69-9.85-13.2-18.95-13.2-25.18,0-25.64,35.14-25.64,52.71s.23,55.35,24.94,55.35c11.37,0,15.62-6.14,19.64-15.15h.41v13.38h19.64v-104.74h-19.64v11.66ZM709.35,689.72c-14.75,0-13.18-27.91-13.18-36.69,0-8.32-1.57-36.46,13.18-36.46,13.11,0,12.24,28.36,12.24,36.46s.87,36.69-12.24,36.69Z"/>
</svg>