<?xml version="1.0" encoding="UTF-8"?>
<svg id="Layer_1" xmlns="http://www.w3.org/2000/svg" viewBox="0 0 2486.27 494.03">
  <defs>
    <style>
      .cls-1 {
        fill: #25282a;
      }
    </style>
  </defs>
  <path class="cls-1" d="M1024.38,448.67c29.57,0,53.32-15.73,60.1-44.62h-24.24c-5.33,17.85-16.96,27.71-35.86,27.71-24.71,0-39.02-19.01-39.02-48.61s14.31-48.61,39.02-48.61c19.64,0,30.77,12.91,34.41,28.42h24.24c-5.57-26.54-26.65-45.32-58.64-45.32-38.54,0-63.25,26.53-63.25,65.52s24.71,65.52,63.25,65.52M1166.39,448.67c38.53,0,63.01-26.54,63.01-65.52s-24.48-65.52-63.01-65.52-63.25,26.53-63.25,65.52,24.71,65.52,63.25,65.52M1127.37,383.15c0-29.59,14.3-48.61,39.02-48.61s38.78,19.02,38.78,48.61-14.06,48.61-38.78,48.61-39.02-19.01-39.02-48.61M1258.97,446.08h23.75v-74.44c0-25.83,10.18-37.1,29.08-37.1s29.08,11.28,29.08,36.63v74.91h23.75v-74.44c0-25.83,10.18-37.1,29.08-37.1s29.08,11.28,29.08,36.63v74.91h23.75v-78.43c0-29.12-14.78-50.02-43.13-50.02-23.27,0-35.87,16.2-41.2,31.47-4.61-16.2-18.42-31.47-40.72-31.47s-32.96,13.15-38.77,28.18v-25.6h-23.75v125.87ZM1482.89,492.11h23.75v-73.5c8,18.08,26.42,30.06,45.8,30.06,31.5,0,55.26-26.77,55.26-65.52s-23.99-65.52-55.26-65.52c-24.23,0-39.74,16.2-45.8,33.11v-30.52h-23.75v171.9ZM1505.67,383.15c0-29.59,14.31-48.61,39.02-48.61s38.78,19.02,38.78,48.61-14.05,48.61-38.78,48.61-39.02-19.01-39.02-48.61M1637.5,446.08h23.75v-75.85c0-22.55,11.63-29.82,35.37-29.82h7.28v-22.78c-24,0-36.84,11.97-42.65,29.59v-27h-23.75v125.87ZM1780,448.67c38.53,0,63.01-26.54,63.01-65.52s-24.48-65.52-63.01-65.52-63.25,26.53-63.25,65.52,24.71,65.52,63.25,65.52M1740.98,383.15c0-29.59,14.3-48.61,39.02-48.61s38.78,19.02,38.78,48.61-14.06,48.61-38.78,48.61-39.02-19.01-39.02-48.61M1872.57,446.08h23.75v-74.44c0-25.83,10.18-37.1,29.08-37.1s29.08,11.28,29.08,36.63v74.91h23.75v-74.44c0-25.83,10.18-37.1,29.08-37.1s29.08,11.28,29.08,36.63v74.91h23.75v-78.43c0-29.12-14.78-50.02-43.14-50.02-23.26,0-35.87,16.2-41.2,31.47-4.61-16.2-18.42-31.47-40.72-31.47s-32.96,13.15-38.78,28.18v-25.6h-23.75v125.87ZM2096.5,446.08h23.75v-125.87h-23.75v125.87ZM2095.53,298.61h25.69v-31h-25.69v31ZM2203.13,448.67c31.99,0,54.29-14.56,54.29-38.75,0-19.49-11.15-31.23-38.3-36.87l-18.17-3.75c-17.45-3.53-25.93-7.05-25.93-17.15,0-11.28,13.57-17.61,27.62-17.61,12.6,0,24.72,6.1,28.35,17.14h24.23c-5.81-22.78-27.38-34.05-52.58-34.05-28.36,0-51.13,14.56-51.13,36.87,0,19.25,15.51,29.12,38.04,33.81l18.18,3.77c19.38,3.99,26.17,9.39,26.17,20.67s-10.41,19.01-30.77,19.01c-13.09,0-27.14-4.69-30.77-22.55h-24.24c3.63,25.83,26.17,39.46,55.01,39.46M2340.3,448.67c29.32,0,50.4-12.68,57.92-39.46h-24.24c-4.85,14.09-14.78,22.55-33.68,22.55-21.57,0-35.86-14.56-37.81-41.8h98.15c.24-3.05.48-6.34.48-8.69,0-38.74-24.72-63.64-61.08-63.64-38.53,0-61.55,27.24-61.55,65.52s22.53,65.52,61.8,65.52M2302.73,372.58c2.91-25.14,16.73-38.05,37.32-38.05s35.38,15.5,36.84,38.05h-74.16ZM2430.2,446.08h28.6v-28.18h-28.6v28.18ZM2422.91,298.61h5.78v-26.36h10.49v-4.64h-26.75v4.64h10.48v26.36ZM2441.3,298.61h5.77v-29.79l6.58,29.79h10.48l6.66-30.23v30.23h5.78v-31h-11.2l-6.49,29.79-6.57-29.79h-11.02v31Z"/>
  <path class="cls-1" d="M7.32,178.48h24.48v-66.7h43.39c43.62,0,70.03-19.96,70.03-55.89S118.8,0,75.19,0H7.32v178.48ZM31.8,90.65V21.14h44.11c28.35,0,43.86,11.27,43.86,34.75s-15.51,34.76-43.86,34.76H31.8ZM221.8,181.06c29.32,0,50.4-12.68,57.92-39.45h-24.23c-4.85,14.09-14.78,22.55-33.69,22.55-21.57,0-35.86-14.56-37.81-41.8h98.15c.24-3.05.48-6.34.48-8.69,0-38.75-24.72-63.64-61.08-63.64-38.53,0-61.55,27.24-61.55,65.52s22.53,65.52,61.8,65.52M184.24,104.97c2.9-25.13,16.73-38.05,37.32-38.05s35.38,15.5,36.84,38.05h-74.16ZM312.19,178.48h23.75v-75.85c0-22.55,11.63-29.82,35.39-29.82h7.27v-22.78c-23.99,0-36.83,11.97-42.65,29.59v-27.01h-23.75v125.87ZM414.46,34.99v17.61h-26.9v17.38h26.9v108.49h23.75v-108.49h33.45v-17.38h-33.45v-17.61c0-13.85,7.03-17.61,18.91-17.61h14.54V0h-16.97c-22.78,0-40.23,10.8-40.23,34.99M544.6,181.06c38.52,0,63.01-26.54,63.01-65.52s-24.49-65.52-63.01-65.52-63.25,26.54-63.25,65.52,24.71,65.52,63.25,65.52M505.58,115.54c0-29.59,14.29-48.61,39.02-48.61s38.77,19.02,38.77,48.61-14.05,48.61-38.77,48.61-39.02-19.02-39.02-48.61M637.17,178.48h23.75v-75.85c0-22.55,11.63-29.82,35.38-29.82h7.27v-22.78c-24,0-36.84,11.97-42.65,29.59v-27.01h-23.75v125.87ZM727.57,178.48h23.75v-74.45c0-25.83,10.18-37.1,29.08-37.1s29.09,11.28,29.09,36.63v74.92h23.75v-74.45c0-25.83,10.18-37.1,29.08-37.1s29.08,11.28,29.08,36.63v74.92h23.75v-78.44c0-29.12-14.78-50.02-43.14-50.02-23.27,0-35.87,16.21-41.2,31.47-4.61-16.21-18.42-31.47-40.72-31.47s-32.95,13.15-38.77,28.18v-25.6h-23.75v125.87ZM987.83,181.06c25.2,0,35.87-10.8,44.84-28.42v25.83h23.75v-81.02c0-23.48-14.3-47.44-53.8-47.44-30.53,0-51.37,15.97-54.28,39.69h24.23c1.7-11.99,11.88-22.78,30.05-22.78,20.6,0,30.06,13.86,30.06,30.3v2.58l-34.9,3.52c-23.26,2.35-53.56,7.99-53.56,37.34,0,23.25,19.39,40.39,43.62,40.39M968.45,140.67c0-18.32,20.35-20.67,38.28-22.55l25.94-2.58v9.4c0,22.54-12.12,40.86-36.11,40.86-15.03,0-28.12-8.93-28.12-25.13M1092.77,178.48h23.75v-74.45c0-25.83,12.12-37.1,31.03-37.1s31.02,11.04,31.02,36.63v74.92h23.75v-78.44c0-28.18-15.75-50.02-45.07-50.02-22.29,0-34.9,13.39-40.72,28.18v-25.6h-23.75v125.87ZM1293.67,181.06c29.57,0,53.31-15.74,60.1-44.61h-24.23c-5.34,17.84-16.96,27.71-35.86,27.71-24.72,0-39.02-19.02-39.02-48.61s14.3-48.61,39.02-48.61c19.63,0,30.77,12.92,34.41,28.42h24.24c-5.57-26.54-26.66-45.33-58.64-45.33-38.54,0-63.26,26.54-63.26,65.52s24.72,65.52,63.26,65.52M1434.48,181.06c29.32,0,50.4-12.68,57.91-39.45h-24.23c-4.85,14.09-14.78,22.55-33.68,22.55-21.57,0-35.87-14.56-37.81-41.8h98.15c.25-3.05.48-6.34.48-8.69,0-38.75-24.71-63.64-61.07-63.64-38.53,0-61.55,27.24-61.55,65.52s22.54,65.52,61.8,65.52M1396.91,104.97c2.91-25.13,16.73-38.05,37.32-38.05s35.38,15.5,36.84,38.05h-74.16Z"/>
  <path class="cls-1" d="M31.99,446.08h45.32l25.2-124.7,25.2,124.7h45.32l31.99-125.87h-23.02l-31.74,124.7-25.21-124.7h-45.07l-25.2,124.7-31.75-124.7H0l31.99,125.87ZM229.26,446.08h23.75v-125.87h-23.75v125.87ZM342.68,446.08h16.96v-17.38h-14.54c-11.87,0-18.9-3.75-18.9-17.14v-73.97h32.96v-17.38h-32.96v-29.82h-23.75v29.82h-27.39v17.38h27.39v73.97c0,23.95,17.69,34.52,40.23,34.52M384.84,446.08h23.75v-74.45c0-25.83,12.12-37.1,31.02-37.1s31.03,11.04,31.03,36.63v74.92h23.75v-78.44c0-28.18-15.76-50.02-45.07-50.02-22.3,0-34.9,13.39-40.72,28.18v-78.2h-23.75v178.48ZM585.74,431.76c-24.72,0-39.01-19.02-39.01-48.62s14.29-48.6,39.01-48.6,38.77,19.01,38.77,48.6-14.05,48.62-38.77,48.62M585.74,317.62c-38.53,0-63.25,26.54-63.25,65.51s24.72,65.53,63.25,65.53,63.01-26.54,63.01-65.53-24.48-65.51-63.01-65.51M721.45,448.66c21.57,0,34.41-13.39,39.99-27.71v25.13h23.75v-125.87h-23.75v74.44c0,25.6-11.39,37.11-30.29,37.11s-30.54-11.28-30.54-36.63v-74.92h-23.75v78.44c0,28.18,15.27,50.02,44.59,50.02M874.85,446.08h16.96v-17.38h-14.54c-11.88,0-18.91-3.75-18.91-17.14v-73.97h32.96v-17.38h-32.96v-29.82h-23.74v29.82h-27.39v17.38h27.39v73.97c0,23.95,17.68,34.52,40.23,34.52M228.29,298.6h25.7v-31h-25.7v31Z"/>
</svg>