<?xml version="1.0" encoding="UTF-8"?>
<svg id="Layer_1" xmlns="http://www.w3.org/2000/svg" viewBox="0 0 1190.55 841.89">
  <defs>
    <style>
      .cls-1 {
        fill: #ba0c2f;
      }
    </style>
  </defs>
  <path class="cls-1" d="M1016.87,435.1h37.06v-4.96c0-34.72-5.77-88.16-52.1-88.16s-50.98,53.72-50.98,88.16,4.28,85.39,52.1,85.39c35.98,0,49.86-28.1,49.86-59.04h-29.54c0,13.04-2.88,31.22-20.04,31.22-20.6,0-19.94-38.56-19.94-52.62v-22.5c0-12.94-1.41-42.51,18.54-42.51s19.3,29.56,19.3,42.51h-26.76l22.5,22.5ZM481.63,341.99c-47.07,0-50.98,53.72-50.98,88.16s4.28,85.39,52.1,85.39c35.98,0,49.86-28.1,49.86-59.04h-29.54c0,13.04-2.88,31.22-20.04,31.22-20.6,0-19.94-38.56-19.94-52.62v-22.5c0-12.94-1.41-42.51,18.54-42.51s19.3,29.56,19.3,42.51h-26.76l22.5,22.5h37.06v-4.96c0-34.72-5.77-88.16-52.1-88.16ZM139.5,512.32h31.69v-225.43h-31.69v225.43ZM320.04,344.83v28.1h54.63l-58.82,139.39h100.11v-27.74h-53.79l57.04-139.75h-99.18ZM586.82,365.58h-.65v-20.75h-31.41v167.49h31.69v-105.33c0-21.11,7.55-34.06,31.03-34.06l5.31.37v-30.94c-17.43,0-28.52,8.44-35.98,23.22ZM669.5,387.99c0-11.2,9.7-17.9,21.8-17.9,7.46,0,17.44,3.86,23.5,9.18v-29.57c-9.24-5.24-17.8-7.34-28.9-7.34-26.66,0-45.21,19.37-45.21,45.63,0,46.37,53.03,48.49,53.03,77.97,0,13.03-7.46,21.12-20.96,21.12-11.1,0-18.19-4.23-26.38-10.56v30.58c9.22,5.6,16.41,8.07,27.39,8.07,30.3,0,48.85-20.38,48.85-49.85,0-47.74-52.39-49.22-53.13-77.32ZM876.34,343.09v25.25h-16.13v24.61h16.13v120.74h31.32v-120.74h26.38v-24.61h-26.38v-21.76c0-11.2-1.4-26.73,15.01-26.73,4.95,0,8.48,1.84,13.14,3.86v-32.23c-7.07-3.21-13.14-4.96-21.34-4.96-36.07,0-38.12,28.09-38.12,56.56ZM263.19,363.48h-.75c-5.69-12.3-15.29-21.12-30.29-21.12-39.9,0-41.02,56.2-41.02,84.29s.75,88.51,40.27,88.51c18.17,0,24.61-9.83,31.04-24.23h.75v21.39h31.69v-167.49h-31.69v18.64ZM244.26,487.07c-23.49,0-20.7-44.63-20.7-58.68,0-13.31-2.79-58.3,20.7-58.3,21.35,0,19.95,45.36,19.95,58.3s1.4,58.68-19.95,58.68ZM809.59,363.48h-.66c-5.68-12.3-15.75-21.12-30.3-21.12-40.26,0-41,56.2-41,84.29s.37,88.51,39.89,88.51c18.18,0,24.98-9.83,31.41-24.23h.66v21.39h31.41v-167.49h-31.41v18.64ZM790.77,487.07c-23.59,0-21.07-44.63-21.07-58.68,0-13.31-2.52-58.3,21.07-58.3,20.96,0,19.57,45.36,19.57,58.3s1.4,58.68-19.57,58.68Z"/>
</svg>