<?xml version="1.0" encoding="UTF-8"?>
<svg id="Layer_1" xmlns="http://www.w3.org/2000/svg" viewBox="0 0 1190.55 841.89">
  <defs>
    <style>
      .cls-1 {
        fill: #fff;
      }
    </style>
  </defs>
  <g>
    <path class="cls-1" d="M506.48,664.89c12.27,0,22.13-6.53,24.95-18.52h-10.06c-2.21,7.41-7.04,11.5-14.89,11.5-10.26,0-16.2-7.89-16.2-20.18s5.94-20.18,16.2-20.18c8.15,0,12.77,5.36,14.28,11.8h10.06c-2.31-11.02-11.06-18.81-24.34-18.81-16,0-26.25,11.01-26.25,27.2s10.26,27.2,26.25,27.2M565.43,664.89c15.99,0,26.15-11.02,26.15-27.2s-10.16-27.2-26.15-27.2-26.25,11.01-26.25,27.2,10.26,27.2,26.25,27.2M549.24,637.69c0-12.28,5.94-20.18,16.2-20.18s16.09,7.89,16.09,20.18-5.84,20.18-16.09,20.18-16.2-7.89-16.2-20.18M603.86,663.81h9.86v-30.9c0-10.72,4.22-15.4,12.07-15.4s12.07,4.68,12.07,15.21v31.09h9.86v-30.9c0-10.72,4.22-15.4,12.07-15.4s12.07,4.68,12.07,15.21v31.09h9.86v-32.55c0-12.09-6.13-20.76-17.9-20.76-9.66,0-14.89,6.73-17.1,13.06-1.91-6.73-7.64-13.06-16.9-13.06s-13.68,5.46-16.09,11.7v-10.63h-9.86v52.24ZM696.8,682.92h9.86v-30.51c3.32,7.51,10.97,12.48,19.01,12.48,13.08,0,22.94-11.11,22.94-27.2s-9.96-27.2-22.94-27.2c-10.06,0-16.5,6.73-19.01,13.74v-12.67h-9.86v71.35ZM706.26,637.69c0-12.28,5.94-20.18,16.2-20.18s16.09,7.89,16.09,20.18-5.83,20.18-16.09,20.18-16.2-7.89-16.2-20.18M760.98,663.81h9.86v-31.48c0-9.36,4.83-12.38,14.68-12.38h3.02v-9.45c-9.96,0-15.29,4.97-17.7,12.28v-11.21h-9.86v52.24ZM820.13,664.89c15.99,0,26.15-11.02,26.15-27.2s-10.16-27.2-26.15-27.2-26.25,11.01-26.25,27.2,10.26,27.2,26.25,27.2M803.93,637.69c0-12.28,5.94-20.18,16.2-20.18s16.09,7.89,16.09,20.18-5.84,20.18-16.09,20.18-16.2-7.89-16.2-20.18M858.55,663.81h9.86v-30.9c0-10.72,4.23-15.4,12.07-15.4s12.07,4.68,12.07,15.21v31.09h9.86v-30.9c0-10.72,4.22-15.4,12.07-15.4s12.07,4.68,12.07,15.21v31.09h9.86v-32.55c0-12.09-6.13-20.76-17.91-20.76-9.66,0-14.89,6.73-17.1,13.06-1.91-6.73-7.64-13.06-16.9-13.06s-13.68,5.46-16.09,11.7v-10.63h-9.86v52.24ZM951.5,663.81h9.86v-52.25h-9.86v52.25ZM951.09,602.6h10.67v-12.87h-10.67v12.87ZM995.76,664.89c13.28,0,22.53-6.04,22.53-16.08,0-8.09-4.63-12.96-15.9-15.3l-7.54-1.56c-7.24-1.46-10.76-2.93-10.76-7.12,0-4.68,5.63-7.31,11.47-7.31,5.23,0,10.26,2.53,11.77,7.11h10.06c-2.41-9.45-11.36-14.13-21.83-14.13-11.77,0-21.22,6.04-21.22,15.3,0,7.99,6.44,12.09,15.79,14.03l7.55,1.56c8.05,1.66,10.86,3.9,10.86,8.58s-4.32,7.89-12.77,7.89c-5.43,0-11.27-1.95-12.77-9.36h-10.06c1.51,10.72,10.86,16.38,22.83,16.38M1052.69,664.89c12.17,0,20.92-5.26,24.04-16.38h-10.06c-2.01,5.85-6.14,9.36-13.98,9.36-8.95,0-14.89-6.04-15.69-17.35h40.74c.1-1.27.2-2.63.2-3.61,0-16.08-10.26-26.42-25.35-26.42-15.99,0-25.55,11.3-25.55,27.2s9.35,27.2,25.65,27.2M1037.1,633.31c1.21-10.43,6.95-15.79,15.49-15.79s14.69,6.43,15.29,15.79h-30.78ZM1090.01,663.81h11.87v-11.7h-11.87v11.7ZM1086.98,602.6h2.4v-10.94h4.35v-1.93h-11.1v1.93h4.35v10.94ZM1094.62,602.6h2.4v-12.37l2.73,12.37h4.35l2.77-12.55v12.55h2.4v-12.87h-4.65l-2.69,12.37-2.73-12.37h-4.57v12.87Z"/>
    <path class="cls-1" d="M84.33,552.74h10.16v-27.68h18.01c18.1,0,29.07-8.29,29.07-23.2s-10.97-23.2-29.07-23.2h-28.17v74.08ZM94.49,516.28v-28.85h18.31c11.77,0,18.21,4.68,18.21,14.42s-6.44,14.43-18.21,14.43h-18.31ZM173.35,553.81c12.17,0,20.92-5.26,24.04-16.38h-10.06c-2.01,5.85-6.14,9.36-13.98,9.36-8.95,0-14.89-6.04-15.69-17.35h40.74c.1-1.27.2-2.63.2-3.61,0-16.08-10.26-26.42-25.35-26.42-15.99,0-25.55,11.31-25.55,27.2s9.35,27.2,25.65,27.2M157.76,522.23c1.21-10.43,6.94-15.79,15.49-15.79s14.69,6.43,15.29,15.79h-30.78ZM210.87,552.74h9.86v-31.49c0-9.36,4.83-12.38,14.69-12.38h3.02v-9.46c-9.96,0-15.29,4.97-17.7,12.28v-11.21h-9.86v52.25ZM253.32,493.18v7.31h-11.16v7.21h11.16v45.03h9.86v-45.03h13.88v-7.21h-13.88v-7.31c0-5.75,2.92-7.31,7.85-7.31h6.04v-7.21h-7.04c-9.45,0-16.7,4.48-16.7,14.52M307.34,553.81c15.99,0,26.15-11.02,26.15-27.2s-10.16-27.2-26.15-27.2-26.25,11.02-26.25,27.2,10.26,27.2,26.25,27.2M291.14,526.61c0-12.28,5.93-20.18,16.2-20.18s16.09,7.89,16.09,20.18-5.83,20.18-16.09,20.18-16.2-7.89-16.2-20.18M345.76,552.74h9.86v-31.49c0-9.36,4.83-12.38,14.69-12.38h3.02v-9.46c-9.96,0-15.29,4.97-17.7,12.28v-11.21h-9.86v52.25ZM383.28,552.74h9.86v-30.9c0-10.72,4.22-15.4,12.07-15.4s12.07,4.68,12.07,15.21v31.1h9.86v-30.9c0-10.72,4.22-15.4,12.07-15.4s12.07,4.68,12.07,15.21v31.1h9.86v-32.56c0-12.09-6.14-20.76-17.91-20.76-9.66,0-14.89,6.73-17.1,13.06-1.91-6.73-7.64-13.06-16.9-13.06s-13.68,5.46-16.09,11.7v-10.63h-9.86v52.25ZM491.32,553.81c10.46,0,14.89-4.48,18.61-11.8v10.72h9.86v-33.63c0-9.75-5.94-19.69-22.33-19.69-12.67,0-21.32,6.63-22.53,16.48h10.06c.7-4.98,4.93-9.46,12.47-9.46,8.55,0,12.48,5.75,12.48,12.58v1.07l-14.49,1.46c-9.66.98-22.23,3.32-22.23,15.5,0,9.65,8.05,16.77,18.11,16.77M483.27,537.05c0-7.6,8.45-8.58,15.89-9.36l10.77-1.07v3.9c0,9.36-5.03,16.96-14.99,16.96-6.24,0-11.67-3.7-11.67-10.43M534.87,552.74h9.86v-30.9c0-10.72,5.03-15.4,12.88-15.4s12.88,4.58,12.88,15.21v31.1h9.86v-32.56c0-11.7-6.54-20.76-18.71-20.76-9.25,0-14.49,5.56-16.9,11.7v-10.63h-9.86v52.25ZM618.26,553.81c12.27,0,22.13-6.53,24.94-18.52h-10.06c-2.22,7.41-7.04,11.5-14.89,11.5-10.26,0-16.2-7.89-16.2-20.18s5.94-20.18,16.2-20.18c8.15,0,12.77,5.36,14.28,11.8h10.06c-2.31-11.02-11.06-18.82-24.34-18.82-16,0-26.26,11.02-26.26,27.2s10.26,27.2,26.26,27.2M676.71,553.81c12.17,0,20.92-5.26,24.04-16.38h-10.06c-2.01,5.85-6.14,9.36-13.98,9.36-8.95,0-14.89-6.04-15.69-17.35h40.74c.1-1.27.2-2.63.2-3.61,0-16.08-10.26-26.42-25.35-26.42-15.99,0-25.55,11.31-25.55,27.2s9.36,27.2,25.65,27.2M661.11,522.23c1.21-10.43,6.94-15.79,15.49-15.79s14.69,6.43,15.29,15.79h-30.78Z"/>
    <path class="cls-1" d="M94.57,663.82h18.81l10.46-51.76,10.46,51.76h18.81l13.28-52.25h-9.56l-13.18,51.76-10.46-51.76h-18.71l-10.46,51.76-13.18-51.76h-9.56l13.28,52.25ZM176.45,663.82h9.86v-52.25h-9.86v52.25ZM223.53,663.82h7.04v-7.21h-6.04c-4.93,0-7.85-1.56-7.85-7.11v-30.7h13.68v-7.21h-13.68v-12.38h-9.86v12.38h-11.37v7.21h11.37v30.7c0,9.94,7.34,14.33,16.7,14.33M241.02,663.82h9.86v-30.9c0-10.72,5.03-15.4,12.88-15.4s12.88,4.58,12.88,15.2v31.1h9.86v-32.56c0-11.7-6.54-20.76-18.71-20.76-9.26,0-14.49,5.56-16.9,11.7v-32.46h-9.86v74.08ZM324.41,657.87c-10.26,0-16.19-7.89-16.19-20.18s5.93-20.17,16.19-20.17,16.09,7.89,16.09,20.17-5.83,20.18-16.09,20.18M324.41,610.5c-15.99,0-26.25,11.02-26.25,27.19s10.26,27.2,26.25,27.2,26.15-11.02,26.15-27.2-10.16-27.19-26.15-27.19M380.75,664.89c8.95,0,14.28-5.56,16.6-11.5v10.43h9.86v-52.25h-9.86v30.9c0,10.63-4.73,15.4-12.57,15.4s-12.68-4.68-12.68-15.21v-31.1h-9.86v32.56c0,11.7,6.34,20.76,18.51,20.76M444.42,663.82h7.04v-7.21h-6.03c-4.93,0-7.85-1.56-7.85-7.11v-30.7h13.68v-7.21h-13.68v-12.38h-9.85v12.38h-11.37v7.21h11.37v30.7c0,9.94,7.34,14.33,16.7,14.33M176.05,602.6h10.67v-12.87h-10.67v12.87Z"/>
  </g>
  <path class="cls-1" d="M959.35,319.89h36.96v-4.94c0-34.62-5.76-87.92-51.96-87.92s-50.84,53.58-50.84,87.92,4.27,85.16,51.96,85.16c35.89,0,49.73-28.03,49.73-58.89h-29.46c0,13.01-2.87,31.14-19.99,31.14-20.54,0-19.89-38.46-19.89-52.47v-22.44c0-12.91-1.41-42.39,18.5-42.39s19.25,29.49,19.25,42.39h-26.69l22.44,22.44ZM425.55,227.02c-46.94,0-50.84,53.58-50.84,87.92s4.27,85.16,51.96,85.16c35.89,0,49.73-28.03,49.73-58.89h-29.46c0,13.01-2.87,31.14-19.99,31.14-20.54,0-19.89-38.46-19.89-52.47v-22.44c0-12.91-1.41-42.39,18.49-42.39s19.25,29.49,19.25,42.39h-26.69l22.44,22.44h36.96v-4.94c0-34.62-5.76-87.92-51.96-87.92ZM84.34,396.9h31.6v-224.82h-31.6v224.82ZM264.4,229.86v28.03h54.48l-58.66,139.01h99.84v-27.66h-53.64l56.89-139.38h-98.91ZM530.46,250.56h-.64v-20.69h-31.33v167.04h31.61v-105.04c0-21.06,7.53-33.97,30.95-33.97l5.3.36v-30.86c-17.38,0-28.44,8.42-35.88,23.16ZM612.92,272.9c0-11.17,9.67-17.85,21.74-17.85,7.44,0,17.39,3.85,23.44,9.16v-29.49c-9.21-5.22-17.76-7.32-28.82-7.32-26.59,0-45.09,19.32-45.09,45.51,0,46.24,52.89,48.36,52.89,77.76,0,13-7.44,21.06-20.91,21.06-11.07,0-18.14-4.21-26.31-10.53v30.49c9.2,5.59,16.36,8.05,27.32,8.05,30.21,0,48.72-20.33,48.72-49.72,0-47.62-52.25-49.09-52.99-77.11ZM819.2,228.13v25.19h-16.08v24.54h16.08v120.42h31.23v-120.42h26.31v-24.54h-26.31v-21.7c0-11.17-1.39-26.65,14.97-26.65,4.93,0,8.46,1.83,13.1,3.85v-32.15c-7.05-3.2-13.1-4.94-21.28-4.94-35.97,0-38.02,28.02-38.02,56.41ZM207.7,248.45h-.75c-5.67-12.27-15.25-21.06-30.21-21.06-39.79,0-40.9,56.04-40.9,84.06s.75,88.27,40.16,88.27c18.13,0,24.54-9.8,30.96-24.17h.75v21.34h31.61v-167.04h-31.61v18.59ZM188.83,371.72c-23.43,0-20.64-44.51-20.64-58.52,0-13.27-2.79-58.15,20.64-58.15,21.29,0,19.89,45.24,19.89,58.15s1.39,58.52-19.89,58.52ZM752.64,248.45h-.65c-5.66-12.27-15.71-21.06-30.22-21.06-40.15,0-40.89,56.04-40.89,84.06s.36,88.27,39.78,88.27c18.13,0,24.92-9.8,31.33-24.17h.65v21.34h31.33v-167.04h-31.33v18.59ZM733.86,371.72c-23.52,0-21.02-44.51-21.02-58.52,0-13.27-2.51-58.15,21.02-58.15,20.91,0,19.51,45.24,19.51,58.15s1.39,58.52-19.51,58.52Z"/>
</svg>