<?xml version="1.0" encoding="UTF-8"?>
<svg id="Layer_1" xmlns="http://www.w3.org/2000/svg" viewBox="0 0 1190.55 841.89">
  <defs>
    <style>
      .cls-1 {
        fill: #fff;
      }
    </style>
  </defs>
  <path class="cls-1" d="M1016.87,435.1h37.06v-4.96c0-34.72-5.77-88.16-52.1-88.16s-50.98,53.72-50.98,88.16,4.28,85.39,52.1,85.39c35.98,0,49.86-28.1,49.86-59.04h-29.54c0,13.04-2.88,31.22-20.04,31.22-20.6,0-19.94-38.56-19.94-52.62v-22.5c0-12.94-1.41-42.51,18.54-42.51s19.3,29.56,19.3,42.51h-26.76l22.5,22.5ZM481.63,341.99c-47.07,0-50.98,53.72-50.98,88.16s4.28,85.39,52.1,85.39c35.98,0,49.86-28.1,49.86-59.04h-29.54c0,13.04-2.88,31.22-20.04,31.22-20.6,0-19.94-38.56-19.94-52.62v-22.5c0-12.94-1.41-42.51,18.54-42.51s19.3,29.56,19.3,42.51h-26.76l22.5,22.5h37.06v-4.96c0-34.72-5.77-88.16-52.1-88.16ZM139.5,512.32h31.69v-225.43h-31.69v225.43ZM320.04,344.83v28.1h54.63l-58.82,139.39h100.11v-27.74h-53.79l57.04-139.75h-99.18ZM586.82,365.58h-.65v-20.75h-31.41v167.49h31.69v-105.33c0-21.11,7.55-34.06,31.03-34.06l5.31.37v-30.94c-17.43,0-28.52,8.44-35.98,23.22ZM669.5,387.99c0-11.2,9.7-17.9,21.8-17.9,7.46,0,17.44,3.86,23.5,9.18v-29.57c-9.24-5.24-17.8-7.34-28.9-7.34-26.66,0-45.21,19.37-45.21,45.63,0,46.37,53.03,48.49,53.03,77.97,0,13.03-7.46,21.12-20.96,21.12-11.1,0-18.19-4.23-26.38-10.56v30.58c9.22,5.6,16.41,8.07,27.39,8.07,30.3,0,48.85-20.38,48.85-49.85,0-47.74-52.39-49.22-53.13-77.32ZM876.34,343.09v25.25h-16.13v24.61h16.13v120.74h31.32v-120.74h26.38v-24.61h-26.38v-21.76c0-11.2-1.4-26.73,15.01-26.73,4.95,0,8.48,1.84,13.14,3.86v-32.23c-7.07-3.21-13.14-4.96-21.34-4.96-36.07,0-38.12,28.09-38.12,56.56ZM263.19,363.48h-.75c-5.69-12.3-15.29-21.12-30.29-21.12-39.9,0-41.02,56.2-41.02,84.29s.75,88.51,40.27,88.51c18.17,0,24.61-9.83,31.04-24.23h.75v21.39h31.69v-167.49h-31.69v18.64ZM244.26,487.07c-23.49,0-20.7-44.63-20.7-58.68,0-13.31-2.79-58.3,20.7-58.3,21.35,0,19.95,45.36,19.95,58.3s1.4,58.68-19.95,58.68ZM809.59,363.48h-.66c-5.68-12.3-15.75-21.12-30.3-21.12-40.26,0-41,56.2-41,84.29s.37,88.51,39.89,88.51c18.18,0,24.98-9.83,31.41-24.23h.66v21.39h31.41v-167.49h-31.41v18.64ZM790.77,487.07c-23.59,0-21.07-44.63-21.07-58.68,0-13.31-2.52-58.3,21.07-58.3,20.96,0,19.57,45.36,19.57,58.3s1.4,58.68-19.57,58.68Z"/>
  <g>
    <path class="cls-1" d="M151.79,546.28h3.79l15.17,37.44h-3.65c-1.78-4.37-3.6-8.73-5.38-13.1h-16.22c-1.77,4.37-3.5,8.73-5.23,13.1h-3.65l15.17-37.44ZM160.48,567.45c-2.5-6.14-4.94-12.48-6.77-17.23h-.1c-1.3,3.31-4.17,10.42-6.86,17.23h13.72Z"/>
    <path class="cls-1" d="M187.57,546.28h3.46v16.99h21.84v-16.99h3.41v37.44h-3.41v-17.28h-21.84v17.28h-3.46v-37.44Z"/>
    <path class="cls-1" d="M223.2,577.62c0-4.99,4.51-7.05,9.55-8.11,4.9-1.01,8.4-1.11,8.4-4.51,0-2.97-2.64-5.76-6.72-5.76-3.55,0-6.14,2.16-7.2,5.57l-3.12-1.1c1.58-5.09,6.14-7.25,10.56-7.25,4.8,0,9.84,2.54,9.84,8.83v10.13c0,4.42.34,6.24.86,8.3h-3.26c-.48-1.87-.62-3.46-.62-5.52h-.09c-1.68,3.6-4.94,6.33-9.79,6.33-4.51,0-8.4-2.25-8.4-6.91ZM232.18,581.89c5.57,0,9.02-5.23,9.02-8.78v-3.6c-1.49,1.15-2.73,1.58-6.29,2.26-3.07.57-8.21,1.68-8.21,5.71,0,2.69,2.11,4.42,5.47,4.42Z"/>
    <path class="cls-1" d="M252.74,545.32h3.22v38.39h-3.22v-38.39Z"/>
    <path class="cls-1" d="M264.5,557.22h3.12v5.09h.09c2.06-4.13,5.57-5.86,9.21-5.86s7.44,1.58,8.74,6.53h.09c2.54-4.89,6-6.53,9.55-6.53,4.51,0,9.46,2.69,9.46,10.65v16.61h-3.22v-15.17c0-6.67-3.36-9.12-7.01-9.12-5.18,0-8.3,4.8-8.3,9.51v14.78h-3.22v-15.17c0-6.67-3.36-9.12-7.01-9.12-5.18,0-8.3,4.8-8.3,9.51v14.78h-3.22v-26.49Z"/>
    <path class="cls-1" d="M310.94,577.62c0-4.99,4.51-7.05,9.55-8.11,4.89-1.01,8.4-1.11,8.4-4.51,0-2.97-2.64-5.76-6.72-5.76-3.55,0-6.14,2.16-7.2,5.57l-3.12-1.1c1.58-5.09,6.14-7.25,10.56-7.25,4.8,0,9.84,2.54,9.84,8.83v10.13c0,4.42.34,6.24.86,8.3h-3.26c-.48-1.87-.62-3.46-.62-5.52h-.1c-1.68,3.6-4.94,6.33-9.79,6.33-4.51,0-8.4-2.25-8.4-6.91ZM319.91,581.89c5.57,0,9.02-5.23,9.02-8.78v-3.6c-1.49,1.15-2.74,1.58-6.29,2.26-3.07.57-8.21,1.68-8.21,5.71,0,2.69,2.11,4.42,5.47,4.42Z"/>
    <path class="cls-1" d="M351.37,565.14c0-11.86,8.35-19.63,18.67-19.63,6.96,0,14.06,3.55,16.51,10.94l-3.12,1.25c-2.26-5.71-7.49-8.97-13.34-8.97-8.11,0-15.07,6.14-15.07,16.46,0,10.94,7.82,16.13,15.6,16.13s12.57-5.18,14.3-11.32l3.07,1.1c-2.35,7.68-8.25,13.44-17.71,13.44-11.09,0-18.91-7.97-18.91-19.39Z"/>
    <path class="cls-1" d="M391.37,570.52c0-8.26,5.47-14.06,13.29-14.06s13.2,5.81,13.2,14.06-5.42,14.01-13.2,14.01-13.29-5.76-13.29-14.01ZM404.66,581.55c5.81,0,9.79-4.56,9.79-11.04s-3.98-11.09-9.79-11.09-9.84,4.61-9.84,11.09,4.03,11.04,9.84,11.04Z"/>
    <path class="cls-1" d="M424.41,557.22h3.12v5.09h.1c2.06-4.13,5.57-5.86,9.21-5.86s7.44,1.58,8.73,6.53h.1c2.54-4.89,6-6.53,9.55-6.53,4.51,0,9.46,2.69,9.46,10.65v16.61h-3.22v-15.17c0-6.67-3.36-9.12-7.01-9.12-5.18,0-8.3,4.8-8.3,9.51v14.78h-3.22v-15.17c0-6.67-3.36-9.12-7.01-9.12-5.18,0-8.3,4.8-8.3,9.51v14.78h-3.22v-26.49Z"/>
    <path class="cls-1" d="M472.86,557.22h3.12v5.57h.1c2.3-4.27,6.1-6.34,10.22-6.34,7.01,0,12.19,5.86,12.19,14.02s-5.42,14.06-12.29,14.06c-4.46,0-8.16-2.35-10.13-6.19v15.94h-3.22v-37.05ZM485.67,581.55c5.42,0,9.36-4.7,9.36-11.08s-3.98-11.04-9.36-11.04-9.6,4.51-9.6,11.09,4.37,11.04,9.6,11.04Z"/>
    <path class="cls-1" d="M502.97,577.62c0-4.99,4.51-7.05,9.55-8.11,4.89-1.01,8.4-1.11,8.4-4.51,0-2.97-2.64-5.76-6.72-5.76-3.55,0-6.14,2.16-7.2,5.57l-3.12-1.1c1.58-5.09,6.14-7.25,10.56-7.25,4.8,0,9.84,2.54,9.84,8.83v10.13c0,4.42.34,6.24.86,8.3h-3.27c-.48-1.87-.62-3.46-.62-5.52h-.09c-1.68,3.6-4.94,6.33-9.79,6.33-4.51,0-8.4-2.25-8.4-6.91ZM511.94,581.89c5.57,0,9.02-5.23,9.02-8.78v-3.6c-1.49,1.15-2.73,1.58-6.29,2.26-3.07.57-8.21,1.68-8.21,5.71,0,2.69,2.11,4.42,5.47,4.42Z"/>
    <path class="cls-1" d="M532.5,557.22h3.12v5.09h.09c2.11-4.13,5.57-5.86,9.36-5.86,4.7,0,9.65,2.64,9.65,10.65v16.61h-3.22v-15.17c0-6.62-3.41-9.12-7.29-9.12-5.43,0-8.5,4.8-8.5,9.51v14.78h-3.22v-26.49Z"/>
    <path class="cls-1" d="M569.66,584.1l-10.7-26.88h3.5c3.03,7.44,5.81,14.93,8.83,22.65h.1c2.93-7.73,5.76-15.26,8.69-22.65h3.5l-14.83,37.05h-3.07l3.99-10.18Z"/>
  </g>
</svg>